<svg width="2206" height="1324" viewBox="0 0 2206 1324" fill="none" xmlns="http://www.w3.org/2000/svg">
<ellipse cx="147" cy="359" rx="10" ry="9" fill="#C4C4C4"/>
<ellipse cx="361" cy="359" rx="10" ry="9" fill="#C4C4C4"/>
<ellipse cx="510" cy="368" rx="10" ry="9" fill="#C4C4C4"/>
<ellipse cx="924" cy="296" rx="10" ry="9" fill="#C4C4C4"/>
<ellipse cx="1170" cy="85" rx="10" ry="9" fill="#C4C4C4"/>
<ellipse cx="1239" cy="85" rx="10" ry="9" fill="#C4C4C4"/>
<ellipse cx="924" cy="886" rx="10" ry="9" fill="#C4C4C4"/>
<ellipse cx="1940" cy="824" rx="10" ry="9" fill="#C4C4C4"/>
<ellipse cx="2010" cy="824" rx="10" ry="9" fill="#C4C4C4"/>
<ellipse cx="361" cy="817" rx="10" ry="9" fill="#C4C4C4"/>
<ellipse cx="147" cy="817" rx="10" ry="9" fill="#C4C4C4"/>
<ellipse cx="147" cy="817" rx="10" ry="9" fill="#C4C4C4"/>
<ellipse cx="147" cy="817" rx="10" ry="9" fill="#C4C4C4"/>
<ellipse cx="510" cy="425" rx="10" ry="9" fill="#C4C4C4"/>
<ellipse cx="285" cy="425" rx="10" ry="9" fill="#C4C4C4"/>
<g filter="url(#filter0_d)">
<ellipse cx="147" cy="425" rx="10" ry="9" fill="#C4C4C4"/>
<path d="M156.5 425C156.5 429.646 152.298 433.5 147 433.5C141.702 433.5 137.5 429.646 137.5 425C137.5 420.354 141.702 416.5 147 416.5C152.298 416.5 156.5 420.354 156.5 425Z" stroke="black"/>
</g>
<path d="M384.385 430.338L388.053 431.82V432.969L383.26 430.748V429.892L388.053 427.677V428.826L384.385 430.338ZM395.377 432.617L396.596 427.771H397.68L395.834 434.111H394.955L393.414 429.306L391.914 434.111H391.035L389.195 427.771H390.274L391.522 432.517L392.998 427.771H393.871L395.377 432.617ZM402.701 434.111C402.639 433.986 402.588 433.763 402.549 433.443C402.045 433.967 401.443 434.228 400.744 434.228C400.119 434.228 399.606 434.052 399.203 433.701C398.805 433.345 398.606 432.896 398.606 432.353C398.606 431.693 398.856 431.181 399.356 430.818C399.859 430.451 400.567 430.267 401.477 430.267H402.531V429.769C402.531 429.39 402.418 429.09 402.192 428.867C401.965 428.64 401.631 428.527 401.19 428.527C400.803 428.527 400.479 428.625 400.217 428.82C399.955 429.015 399.824 429.252 399.824 429.529H398.734C398.734 429.213 398.846 428.908 399.068 428.615C399.295 428.318 399.6 428.084 399.983 427.912C400.369 427.74 400.793 427.654 401.254 427.654C401.984 427.654 402.557 427.838 402.971 428.205C403.385 428.568 403.6 429.07 403.615 429.711V432.629C403.615 433.211 403.69 433.674 403.838 434.017V434.111H402.701ZM400.902 433.285C401.242 433.285 401.565 433.197 401.869 433.021C402.174 432.845 402.395 432.617 402.531 432.336V431.035H401.682C400.354 431.035 399.69 431.424 399.69 432.201C399.69 432.541 399.803 432.806 400.029 432.998C400.256 433.189 400.547 433.285 400.902 433.285ZM407.295 432.523L408.772 427.771H409.932L407.383 435.09C406.988 436.144 406.361 436.672 405.502 436.672L405.297 436.654L404.893 436.578V435.699L405.186 435.722C405.553 435.722 405.838 435.648 406.041 435.5C406.248 435.351 406.418 435.08 406.551 434.685L406.791 434.041L404.529 427.771H405.713L407.295 432.523ZM416.26 431.011C416.26 431.976 416.039 432.754 415.598 433.344C415.156 433.933 414.559 434.228 413.805 434.228C413.035 434.228 412.43 433.984 411.988 433.496V436.549H410.904V427.771H411.895L411.947 428.474C412.389 427.927 413.002 427.654 413.787 427.654C414.549 427.654 415.151 427.941 415.592 428.515C416.037 429.09 416.26 429.888 416.26 430.912V431.011ZM415.176 430.888C415.176 430.174 415.024 429.609 414.719 429.195C414.414 428.781 413.996 428.574 413.465 428.574C412.809 428.574 412.317 428.865 411.988 429.447V432.476C412.313 433.054 412.809 433.344 413.477 433.344C413.996 433.344 414.408 433.138 414.713 432.728C415.022 432.314 415.176 431.701 415.176 430.888ZM417.356 430.883C417.356 430.261 417.477 429.703 417.719 429.207C417.965 428.711 418.305 428.328 418.738 428.058C419.176 427.789 419.674 427.654 420.233 427.654C421.096 427.654 421.793 427.953 422.324 428.551C422.859 429.148 423.127 429.943 423.127 430.935V431.011C423.127 431.629 423.008 432.183 422.77 432.676C422.535 433.164 422.197 433.545 421.756 433.818C421.318 434.092 420.815 434.228 420.244 434.228C419.385 434.228 418.688 433.929 418.152 433.332C417.621 432.734 417.356 431.943 417.356 430.959V430.883ZM418.445 431.011C418.445 431.715 418.608 432.279 418.932 432.705C419.26 433.131 419.697 433.344 420.244 433.344C420.795 433.344 421.233 433.129 421.557 432.699C421.881 432.265 422.043 431.66 422.043 430.883C422.043 430.187 421.877 429.625 421.545 429.195C421.217 428.761 420.779 428.545 420.233 428.545C419.697 428.545 419.266 428.758 418.938 429.183C418.609 429.609 418.445 430.219 418.445 431.011ZM425.664 434.111H424.58V427.771H425.664V434.111ZM424.492 426.09C424.492 425.914 424.545 425.765 424.651 425.644C424.76 425.523 424.92 425.463 425.131 425.463C425.342 425.463 425.502 425.523 425.611 425.644C425.721 425.765 425.776 425.914 425.776 426.09C425.776 426.265 425.721 426.412 425.611 426.529C425.502 426.646 425.342 426.705 425.131 426.705C424.92 426.705 424.76 426.646 424.651 426.529C424.545 426.412 424.492 426.265 424.492 426.09ZM428.43 427.771L428.465 428.568C428.949 427.959 429.582 427.654 430.363 427.654C431.703 427.654 432.379 428.41 432.391 429.922V434.111H431.307V429.916C431.303 429.459 431.197 429.121 430.99 428.902C430.787 428.683 430.469 428.574 430.035 428.574C429.684 428.574 429.375 428.668 429.109 428.855C428.844 429.043 428.637 429.289 428.488 429.594V434.111H427.404V427.771H428.43ZM435.496 426.236V427.771H436.68V428.609H435.496V432.541C435.496 432.795 435.549 432.986 435.654 433.115C435.76 433.24 435.94 433.302 436.193 433.302C436.318 433.302 436.49 433.279 436.709 433.232V434.111C436.424 434.189 436.147 434.228 435.877 434.228C435.393 434.228 435.027 434.082 434.781 433.789C434.535 433.496 434.412 433.08 434.412 432.541V428.609H433.258V427.771H434.412V426.236H435.496ZM441.953 427.771L441.988 428.568C442.473 427.959 443.106 427.654 443.887 427.654C445.227 427.654 445.902 428.41 445.914 429.922V434.111H444.83V429.916C444.826 429.459 444.721 429.121 444.514 428.902C444.311 428.683 443.992 428.574 443.559 428.574C443.207 428.574 442.899 428.668 442.633 428.855C442.367 429.043 442.16 429.289 442.012 429.594V434.111H440.928V427.771H441.953ZM451.463 434.111C451.401 433.986 451.35 433.763 451.311 433.443C450.807 433.967 450.205 434.228 449.506 434.228C448.881 434.228 448.367 434.052 447.965 433.701C447.567 433.345 447.367 432.896 447.367 432.353C447.367 431.693 447.617 431.181 448.117 430.818C448.621 430.451 449.328 430.267 450.238 430.267H451.293V429.769C451.293 429.39 451.18 429.09 450.953 428.867C450.727 428.64 450.393 428.527 449.951 428.527C449.565 428.527 449.24 428.625 448.979 428.82C448.717 429.015 448.586 429.252 448.586 429.529H447.496C447.496 429.213 447.608 428.908 447.83 428.615C448.057 428.318 448.361 428.084 448.744 427.912C449.131 427.74 449.555 427.654 450.016 427.654C450.746 427.654 451.318 427.838 451.733 428.205C452.147 428.568 452.361 429.07 452.377 429.711V432.629C452.377 433.211 452.451 433.674 452.6 434.017V434.111H451.463ZM449.664 433.285C450.004 433.285 450.326 433.197 450.631 433.021C450.936 432.845 451.156 432.617 451.293 432.336V431.035H450.443C449.115 431.035 448.451 431.424 448.451 432.201C448.451 432.541 448.565 432.806 448.791 432.998C449.018 433.189 449.309 433.285 449.664 433.285ZM455.096 427.771L455.125 428.474C455.59 427.927 456.217 427.654 457.006 427.654C457.893 427.654 458.496 427.994 458.817 428.674C459.027 428.369 459.301 428.123 459.637 427.935C459.977 427.748 460.377 427.654 460.838 427.654C462.229 427.654 462.936 428.39 462.959 429.863V434.111H461.875V429.927C461.875 429.474 461.772 429.136 461.565 428.914C461.358 428.687 461.01 428.574 460.522 428.574C460.119 428.574 459.785 428.695 459.52 428.937C459.254 429.176 459.1 429.498 459.057 429.904V434.111H457.967V429.957C457.967 429.035 457.516 428.574 456.613 428.574C455.902 428.574 455.416 428.877 455.154 429.482V434.111H454.07V427.771H455.096ZM467.231 434.228C466.371 434.228 465.672 433.947 465.133 433.385C464.594 432.818 464.324 432.062 464.324 431.117V430.918C464.324 430.289 464.443 429.728 464.682 429.236C464.924 428.74 465.26 428.353 465.69 428.076C466.123 427.795 466.592 427.654 467.096 427.654C467.92 427.654 468.561 427.926 469.018 428.469C469.475 429.011 469.703 429.789 469.703 430.801V431.252H465.408C465.424 431.877 465.606 432.383 465.953 432.769C466.305 433.152 466.75 433.344 467.289 433.344C467.672 433.344 467.996 433.265 468.262 433.109C468.527 432.953 468.76 432.746 468.959 432.488L469.621 433.004C469.09 433.82 468.293 434.228 467.231 434.228ZM467.096 428.545C466.658 428.545 466.291 428.705 465.994 429.025C465.697 429.342 465.514 429.787 465.443 430.361H468.619V430.279C468.588 429.728 468.44 429.302 468.174 429.002C467.908 428.697 467.549 428.545 467.096 428.545ZM475.92 429.342H471.033V428.398H475.92V429.342ZM475.92 431.773H471.033V430.836H475.92V431.773ZM478.352 425.908L478.176 428.006H477.526L477.531 425.111H478.352V425.908ZM479.934 425.908L479.758 428.006H479.108L479.113 425.111H479.934V425.908ZM482.688 430.771V434.111H481.563V425.58H484.709C485.643 425.58 486.373 425.818 486.901 426.295C487.432 426.771 487.697 427.402 487.697 428.187C487.697 429.015 487.438 429.654 486.918 430.103C486.402 430.549 485.662 430.771 484.697 430.771H482.688ZM482.688 429.851H484.709C485.311 429.851 485.772 429.711 486.092 429.429C486.412 429.144 486.572 428.734 486.572 428.199C486.572 427.691 486.412 427.285 486.092 426.98C485.772 426.676 485.332 426.517 484.774 426.506H482.688V429.851ZM490.141 434.111H489.057V425.111H490.141V434.111ZM495.795 434.111C495.733 433.986 495.682 433.763 495.643 433.443C495.139 433.967 494.537 434.228 493.838 434.228C493.213 434.228 492.699 434.052 492.297 433.701C491.899 433.345 491.699 432.896 491.699 432.353C491.699 431.693 491.949 431.181 492.449 430.818C492.953 430.451 493.66 430.267 494.57 430.267H495.625V429.769C495.625 429.39 495.512 429.09 495.285 428.867C495.059 428.64 494.725 428.527 494.283 428.527C493.897 428.527 493.572 428.625 493.311 428.82C493.049 429.015 492.918 429.252 492.918 429.529H491.828C491.828 429.213 491.94 428.908 492.162 428.615C492.389 428.318 492.693 428.084 493.076 427.912C493.463 427.74 493.887 427.654 494.348 427.654C495.078 427.654 495.651 427.838 496.065 428.205C496.479 428.568 496.693 429.07 496.709 429.711V432.629C496.709 433.211 496.783 433.674 496.932 434.017V434.111H495.795ZM493.996 433.285C494.336 433.285 494.658 433.197 494.963 433.021C495.268 432.845 495.488 432.617 495.625 432.336V431.035H494.776C493.447 431.035 492.783 431.424 492.783 432.201C492.783 432.541 492.897 432.806 493.123 432.998C493.35 433.189 493.641 433.285 493.996 433.285ZM500.951 433.344C501.338 433.344 501.676 433.226 501.965 432.992C502.254 432.758 502.414 432.465 502.445 432.113H503.471C503.451 432.476 503.326 432.822 503.096 433.15C502.865 433.478 502.557 433.74 502.17 433.935C501.787 434.131 501.381 434.228 500.951 434.228C500.088 434.228 499.401 433.941 498.889 433.367C498.381 432.789 498.127 432 498.127 431V430.818C498.127 430.201 498.24 429.652 498.467 429.172C498.693 428.691 499.018 428.318 499.44 428.052C499.865 427.787 500.367 427.654 500.945 427.654C501.656 427.654 502.246 427.867 502.715 428.293C503.188 428.719 503.44 429.271 503.471 429.951H502.445C502.414 429.541 502.258 429.205 501.977 428.943C501.699 428.677 501.356 428.545 500.945 428.545C500.395 428.545 499.967 428.744 499.662 429.142C499.361 429.537 499.211 430.109 499.211 430.859V431.064C499.211 431.795 499.361 432.357 499.662 432.752C499.963 433.146 500.393 433.344 500.951 433.344ZM507.32 434.228C506.461 434.228 505.762 433.947 505.223 433.385C504.684 432.818 504.414 432.062 504.414 431.117V430.918C504.414 430.289 504.533 429.728 504.772 429.236C505.014 428.74 505.35 428.353 505.779 428.076C506.213 427.795 506.682 427.654 507.186 427.654C508.01 427.654 508.651 427.926 509.108 428.469C509.565 429.011 509.793 429.789 509.793 430.801V431.252H505.498C505.514 431.877 505.695 432.383 506.043 432.769C506.395 433.152 506.84 433.344 507.379 433.344C507.762 433.344 508.086 433.265 508.352 433.109C508.617 432.953 508.85 432.746 509.049 432.488L509.711 433.004C509.18 433.82 508.383 434.228 507.32 434.228ZM507.186 428.545C506.748 428.545 506.381 428.705 506.084 429.025C505.787 429.342 505.604 429.787 505.533 430.361H508.709V430.279C508.678 429.728 508.529 429.302 508.264 429.002C507.998 428.697 507.639 428.545 507.186 428.545ZM517.779 434.111H516.649V430.168H512.348V434.111H511.223V425.58H512.348V429.248H516.649V425.58H517.779V434.111ZM519.32 430.883C519.32 430.261 519.442 429.703 519.684 429.207C519.93 428.711 520.27 428.328 520.703 428.058C521.141 427.789 521.639 427.654 522.197 427.654C523.061 427.654 523.758 427.953 524.289 428.551C524.824 429.148 525.092 429.943 525.092 430.935V431.011C525.092 431.629 524.973 432.183 524.734 432.676C524.5 433.164 524.162 433.545 523.721 433.818C523.283 434.092 522.779 434.228 522.209 434.228C521.35 434.228 520.652 433.929 520.117 433.332C519.586 432.734 519.32 431.943 519.32 430.959V430.883ZM520.41 431.011C520.41 431.715 520.572 432.279 520.897 432.705C521.225 433.131 521.662 433.344 522.209 433.344C522.76 433.344 523.197 433.129 523.522 432.699C523.846 432.265 524.008 431.66 524.008 430.883C524.008 430.187 523.842 429.625 523.51 429.195C523.182 428.761 522.744 428.545 522.197 428.545C521.662 428.545 521.231 428.758 520.902 429.183C520.574 429.609 520.41 430.219 520.41 431.011ZM527.629 434.111H526.545V425.111H527.629V434.111ZM529.106 430.888C529.106 429.916 529.336 429.135 529.797 428.545C530.258 427.951 530.861 427.654 531.608 427.654C532.35 427.654 532.938 427.908 533.371 428.416V425.111H534.455V434.111H533.459L533.406 433.431C532.973 433.963 532.369 434.228 531.596 434.228C530.861 434.228 530.262 433.927 529.797 433.326C529.336 432.724 529.106 431.939 529.106 430.97V430.888ZM530.19 431.011C530.19 431.73 530.338 432.293 530.635 432.699C530.932 433.105 531.342 433.308 531.865 433.308C532.553 433.308 533.055 433 533.371 432.383V429.47C533.047 428.873 532.549 428.574 531.877 428.574C531.346 428.574 530.932 428.779 530.635 429.189C530.338 429.599 530.19 430.207 530.19 431.011ZM538.774 434.228C537.914 434.228 537.215 433.947 536.676 433.385C536.137 432.818 535.867 432.062 535.867 431.117V430.918C535.867 430.289 535.986 429.728 536.225 429.236C536.467 428.74 536.803 428.353 537.233 428.076C537.666 427.795 538.135 427.654 538.639 427.654C539.463 427.654 540.104 427.926 540.561 428.469C541.018 429.011 541.246 429.789 541.246 430.801V431.252H536.951C536.967 431.877 537.149 432.383 537.496 432.769C537.848 433.152 538.293 433.344 538.832 433.344C539.215 433.344 539.539 433.265 539.805 433.109C540.07 432.953 540.303 432.746 540.502 432.488L541.164 433.004C540.633 433.82 539.836 434.228 538.774 434.228ZM538.639 428.545C538.201 428.545 537.834 428.705 537.537 429.025C537.24 429.342 537.057 429.787 536.986 430.361H540.162V430.279C540.131 429.728 539.983 429.302 539.717 429.002C539.451 428.697 539.092 428.545 538.639 428.545ZM545.57 428.744C545.406 428.717 545.229 428.703 545.037 428.703C544.326 428.703 543.844 429.006 543.59 429.611V434.111H542.506V427.771H543.561L543.578 428.504C543.934 427.937 544.438 427.654 545.09 427.654C545.301 427.654 545.461 427.681 545.57 427.736V428.744ZM547.469 425.908L547.293 428.006H546.643L546.649 425.111H547.469V425.908ZM549.051 425.908L548.875 428.006H548.225L548.231 425.111H549.051V425.908ZM554.787 433.191H558.83V434.111H553.656V425.58H554.787V433.191ZM562.574 434.228C561.715 434.228 561.016 433.947 560.477 433.385C559.938 432.818 559.668 432.062 559.668 431.117V430.918C559.668 430.289 559.787 429.728 560.026 429.236C560.268 428.74 560.604 428.353 561.033 428.076C561.467 427.795 561.936 427.654 562.44 427.654C563.264 427.654 563.904 427.926 564.361 428.469C564.818 429.011 565.047 429.789 565.047 430.801V431.252H560.752C560.768 431.877 560.949 432.383 561.297 432.769C561.649 433.152 562.094 433.344 562.633 433.344C563.016 433.344 563.34 433.265 563.606 433.109C563.871 432.953 564.104 432.746 564.303 432.488L564.965 433.004C564.434 433.82 563.637 434.228 562.574 434.228ZM562.44 428.545C562.002 428.545 561.635 428.705 561.338 429.025C561.041 429.342 560.858 429.787 560.787 430.361H563.963V430.279C563.932 429.728 563.783 429.302 563.518 429.002C563.252 428.697 562.893 428.545 562.44 428.545ZM568.317 432.64L569.887 427.771H570.994L568.721 434.111H567.895L565.598 427.771H566.705L568.317 432.64ZM574.586 434.228C573.727 434.228 573.027 433.947 572.488 433.385C571.949 432.818 571.68 432.062 571.68 431.117V430.918C571.68 430.289 571.799 429.728 572.037 429.236C572.279 428.74 572.615 428.353 573.045 428.076C573.479 427.795 573.947 427.654 574.451 427.654C575.276 427.654 575.916 427.926 576.373 428.469C576.83 429.011 577.059 429.789 577.059 430.801V431.252H572.764C572.779 431.877 572.961 432.383 573.309 432.769C573.66 433.152 574.106 433.344 574.645 433.344C575.027 433.344 575.352 433.265 575.617 433.109C575.883 432.953 576.115 432.746 576.315 432.488L576.977 433.004C576.445 433.82 575.649 434.228 574.586 434.228ZM574.451 428.545C574.014 428.545 573.647 428.705 573.35 429.025C573.053 429.342 572.869 429.787 572.799 430.361H575.975V430.279C575.943 429.728 575.795 429.302 575.529 429.002C575.264 428.697 574.904 428.545 574.451 428.545ZM579.496 434.111H578.412V425.111H579.496V434.111ZM586.193 429.342H581.307V428.398H586.193V429.342ZM586.193 431.773H581.307V430.836H586.193V431.773ZM588.625 425.908L588.449 428.006H587.799L587.805 425.111H588.625V425.908ZM590.207 425.908L590.031 428.006H589.381L589.387 425.111H590.207V425.908ZM596.904 430.472C596.904 431.742 596.688 432.685 596.254 433.302C595.82 433.92 595.143 434.228 594.221 434.228C593.311 434.228 592.637 433.927 592.199 433.326C591.762 432.72 591.535 431.818 591.52 430.619V429.172C591.52 427.918 591.736 426.986 592.17 426.377C592.604 425.767 593.283 425.463 594.209 425.463C595.127 425.463 595.803 425.758 596.236 426.347C596.67 426.933 596.893 427.84 596.904 429.066V430.472ZM595.82 428.99C595.82 428.072 595.692 427.404 595.434 426.986C595.176 426.564 594.768 426.353 594.209 426.353C593.654 426.353 593.25 426.562 592.996 426.98C592.742 427.398 592.611 428.041 592.604 428.908V430.642C592.604 431.564 592.736 432.246 593.002 432.687C593.272 433.125 593.678 433.344 594.221 433.344C594.756 433.344 595.152 433.136 595.41 432.722C595.672 432.308 595.809 431.656 595.82 430.765V428.99ZM599.207 425.908L599.031 428.006H598.381L598.387 425.111H599.207V425.908ZM600.789 425.908L600.613 428.006H599.963L599.969 425.111H600.789V425.908ZM607.352 430.086L608.758 427.771H610.024L607.949 430.906L610.088 434.111H608.834L607.369 431.738L605.904 434.111H604.645L606.783 430.906L604.709 427.771H605.963L607.352 430.086ZM616.135 429.342H611.248V428.398H616.135V429.342ZM616.135 431.773H611.248V430.836H616.135V431.773ZM618.567 425.908L618.391 428.006H617.74L617.746 425.111H618.567V425.908ZM620.149 425.908L619.973 428.006H619.322L619.328 425.111H620.149V425.908ZM626.846 430.472C626.846 431.742 626.629 432.685 626.195 433.302C625.762 433.92 625.084 434.228 624.162 434.228C623.252 434.228 622.578 433.927 622.141 433.326C621.703 432.72 621.477 431.818 621.461 430.619V429.172C621.461 427.918 621.678 426.986 622.111 426.377C622.545 425.767 623.225 425.463 624.151 425.463C625.068 425.463 625.744 425.758 626.178 426.347C626.611 426.933 626.834 427.84 626.846 429.066V430.472ZM625.762 428.99C625.762 428.072 625.633 427.404 625.375 426.986C625.117 426.564 624.709 426.353 624.151 426.353C623.596 426.353 623.192 426.562 622.938 426.98C622.684 427.398 622.553 428.041 622.545 428.908V430.642C622.545 431.564 622.678 432.246 622.943 432.687C623.213 433.125 623.619 433.344 624.162 433.344C624.697 433.344 625.094 433.136 625.352 432.722C625.613 432.308 625.75 431.656 625.762 430.765V428.99ZM629.149 425.908L628.973 428.006H628.322L628.328 425.111H629.149V425.908ZM630.731 425.908L630.555 428.006H629.904L629.91 425.111H630.731V425.908ZM637.24 432.523L638.717 427.771H639.877L637.328 435.09C636.934 436.144 636.307 436.672 635.447 436.672L635.242 436.654L634.838 436.578V435.699L635.131 435.722C635.498 435.722 635.783 435.648 635.986 435.5C636.193 435.351 636.363 435.08 636.496 434.685L636.736 434.041L634.475 427.771H635.658L637.24 432.523ZM645.807 429.342H640.92V428.398H645.807V429.342ZM645.807 431.773H640.92V430.836H645.807V431.773ZM648.238 425.908L648.063 428.006H647.412L647.418 425.111H648.238V425.908ZM649.82 425.908L649.645 428.006H648.994L649 425.111H649.82V425.908ZM656.518 430.472C656.518 431.742 656.301 432.685 655.867 433.302C655.434 433.92 654.756 434.228 653.834 434.228C652.924 434.228 652.25 433.927 651.813 433.326C651.375 432.72 651.149 431.818 651.133 430.619V429.172C651.133 427.918 651.35 426.986 651.783 426.377C652.217 425.767 652.897 425.463 653.822 425.463C654.74 425.463 655.416 425.758 655.85 426.347C656.283 426.933 656.506 427.84 656.518 429.066V430.472ZM655.434 428.99C655.434 428.072 655.305 427.404 655.047 426.986C654.789 426.564 654.381 426.353 653.822 426.353C653.268 426.353 652.863 426.562 652.609 426.98C652.356 427.398 652.225 428.041 652.217 428.908V430.642C652.217 431.564 652.35 432.246 652.615 432.687C652.885 433.125 653.291 433.344 653.834 433.344C654.369 433.344 654.766 433.136 655.024 432.722C655.285 432.308 655.422 431.656 655.434 430.765V428.99ZM658.82 425.908L658.645 428.006H657.994L658 425.111H658.82V425.908ZM660.402 425.908L660.227 428.006H659.576L659.582 425.111H660.402V425.908ZM665.863 427.771L665.899 428.568C666.383 427.959 667.016 427.654 667.797 427.654C669.137 427.654 669.813 428.41 669.824 429.922V434.111H668.74V429.916C668.736 429.459 668.631 429.121 668.424 428.902C668.221 428.683 667.902 428.574 667.469 428.574C667.117 428.574 666.809 428.668 666.543 428.855C666.277 429.043 666.07 429.289 665.922 429.594V434.111H664.838V427.771H665.863ZM674.09 434.228C673.231 434.228 672.531 433.947 671.992 433.385C671.453 432.818 671.184 432.062 671.184 431.117V430.918C671.184 430.289 671.303 429.728 671.541 429.236C671.783 428.74 672.119 428.353 672.549 428.076C672.983 427.795 673.451 427.654 673.955 427.654C674.779 427.654 675.42 427.926 675.877 428.469C676.334 429.011 676.563 429.789 676.563 430.801V431.252H672.268C672.283 431.877 672.465 432.383 672.813 432.769C673.164 433.152 673.609 433.344 674.149 433.344C674.531 433.344 674.856 433.265 675.121 433.109C675.387 432.953 675.619 432.746 675.818 432.488L676.481 433.004C675.949 433.82 675.152 434.228 674.09 434.228ZM673.955 428.545C673.518 428.545 673.151 428.705 672.854 429.025C672.557 429.342 672.373 429.787 672.303 430.361H675.479V430.279C675.447 429.728 675.299 429.302 675.033 429.002C674.768 428.697 674.408 428.545 673.955 428.545ZM679 434.111H677.916V427.771H679V434.111ZM677.828 426.09C677.828 425.914 677.881 425.765 677.986 425.644C678.096 425.523 678.256 425.463 678.467 425.463C678.678 425.463 678.838 425.523 678.947 425.644C679.057 425.765 679.111 425.914 679.111 426.09C679.111 426.265 679.057 426.412 678.947 426.529C678.838 426.646 678.678 426.705 678.467 426.705C678.256 426.705 678.096 426.646 677.986 426.529C677.881 426.412 677.828 426.265 677.828 426.09ZM680.483 430.888C680.483 429.9 680.711 429.115 681.168 428.533C681.625 427.947 682.231 427.654 682.984 427.654C683.758 427.654 684.361 427.927 684.795 428.474L684.848 427.771H685.838V433.959C685.838 434.779 685.594 435.426 685.106 435.898C684.621 436.371 683.969 436.607 683.149 436.607C682.692 436.607 682.244 436.51 681.807 436.314C681.369 436.119 681.035 435.851 680.805 435.511L681.367 434.861C681.832 435.435 682.401 435.722 683.072 435.722C683.6 435.722 684.01 435.574 684.303 435.277C684.6 434.98 684.748 434.562 684.748 434.023V433.478C684.315 433.978 683.723 434.228 682.973 434.228C682.231 434.228 681.629 433.929 681.168 433.332C680.711 432.734 680.483 431.92 680.483 430.888ZM681.572 431.011C681.572 431.726 681.719 432.289 682.012 432.699C682.305 433.105 682.715 433.308 683.242 433.308C683.926 433.308 684.428 432.998 684.748 432.377V429.482C684.416 428.877 683.918 428.574 683.254 428.574C682.727 428.574 682.315 428.779 682.018 429.189C681.721 429.599 681.572 430.207 681.572 431.011ZM688.563 428.539C689.043 427.949 689.668 427.654 690.438 427.654C691.777 427.654 692.453 428.41 692.465 429.922V434.111H691.381V429.916C691.377 429.459 691.272 429.121 691.065 428.902C690.861 428.683 690.543 428.574 690.109 428.574C689.758 428.574 689.449 428.668 689.184 428.855C688.918 429.043 688.711 429.289 688.563 429.594V434.111H687.479V425.111H688.563V428.539ZM699.455 431.011C699.455 431.98 699.233 432.76 698.787 433.349C698.342 433.935 697.744 434.228 696.994 434.228C696.193 434.228 695.574 433.945 695.137 433.379L695.084 434.111H694.088V425.111H695.172V428.469C695.609 427.926 696.213 427.654 696.983 427.654C697.752 427.654 698.356 427.945 698.793 428.527C699.234 429.109 699.455 429.906 699.455 430.918V431.011ZM698.371 430.888C698.371 430.15 698.229 429.58 697.943 429.177C697.658 428.775 697.248 428.574 696.713 428.574C695.998 428.574 695.484 428.906 695.172 429.57V432.312C695.504 432.976 696.022 433.308 696.725 433.308C697.244 433.308 697.649 433.107 697.938 432.705C698.227 432.302 698.371 431.697 698.371 430.888ZM700.539 430.883C700.539 430.261 700.66 429.703 700.902 429.207C701.149 428.711 701.488 428.328 701.922 428.058C702.359 427.789 702.858 427.654 703.416 427.654C704.279 427.654 704.977 427.953 705.508 428.551C706.043 429.148 706.311 429.943 706.311 430.935V431.011C706.311 431.629 706.192 432.183 705.953 432.676C705.719 433.164 705.381 433.545 704.94 433.818C704.502 434.092 703.998 434.228 703.428 434.228C702.568 434.228 701.871 433.929 701.336 433.332C700.805 432.734 700.539 431.943 700.539 430.959V430.883ZM701.629 431.011C701.629 431.715 701.791 432.279 702.115 432.705C702.443 433.131 702.881 433.344 703.428 433.344C703.979 433.344 704.416 433.129 704.74 432.699C705.065 432.265 705.227 431.66 705.227 430.883C705.227 430.187 705.061 429.625 704.729 429.195C704.401 428.761 703.963 428.545 703.416 428.545C702.881 428.545 702.449 428.758 702.121 429.183C701.793 429.609 701.629 430.219 701.629 431.011ZM711.584 433.484C711.162 433.98 710.543 434.228 709.727 434.228C709.051 434.228 708.535 434.033 708.18 433.642C707.828 433.248 707.651 432.666 707.647 431.896V427.771H708.731V431.867C708.731 432.828 709.121 433.308 709.902 433.308C710.731 433.308 711.281 433 711.555 432.383V427.771H712.639V434.111H711.608L711.584 433.484ZM717.356 428.744C717.192 428.717 717.014 428.703 716.822 428.703C716.111 428.703 715.629 429.006 715.375 429.611V434.111H714.291V427.771H715.346L715.363 428.504C715.719 427.937 716.223 427.654 716.875 427.654C717.086 427.654 717.246 427.681 717.356 427.736V428.744ZM722.049 432.429C722.049 432.136 721.938 431.91 721.715 431.75C721.496 431.586 721.111 431.445 720.561 431.328C720.014 431.211 719.578 431.07 719.254 430.906C718.934 430.742 718.695 430.547 718.539 430.32C718.387 430.094 718.311 429.824 718.311 429.511C718.311 428.992 718.529 428.552 718.967 428.193C719.408 427.834 719.971 427.654 720.654 427.654C721.373 427.654 721.955 427.84 722.401 428.211C722.85 428.582 723.074 429.056 723.074 429.635H721.984C721.984 429.338 721.858 429.082 721.604 428.867C721.354 428.652 721.037 428.545 720.654 428.545C720.26 428.545 719.951 428.631 719.729 428.802C719.506 428.974 719.395 429.199 719.395 429.476C719.395 429.738 719.498 429.935 719.705 430.068C719.912 430.201 720.285 430.328 720.824 430.449C721.367 430.57 721.807 430.715 722.143 430.883C722.479 431.051 722.727 431.254 722.887 431.492C723.051 431.726 723.133 432.013 723.133 432.353C723.133 432.92 722.906 433.375 722.453 433.719C722 434.058 721.412 434.228 720.69 434.228C720.182 434.228 719.733 434.138 719.342 433.959C718.951 433.779 718.645 433.529 718.422 433.209C718.203 432.885 718.094 432.535 718.094 432.16H719.178C719.197 432.523 719.342 432.812 719.611 433.027C719.885 433.238 720.244 433.344 720.69 433.344C721.1 433.344 721.428 433.261 721.674 433.097C721.924 432.929 722.049 432.707 722.049 432.429ZM729.502 429.342H724.615V428.398H729.502V429.342ZM729.502 431.773H724.615V430.836H729.502V431.773ZM731.934 425.908L731.758 428.006H731.108L731.113 425.111H731.934V425.908ZM733.516 425.908L733.34 428.006H732.69L732.695 425.111H733.516V425.908ZM736.27 430.771V434.111H735.145V425.58H738.291C739.225 425.58 739.955 425.818 740.483 426.295C741.014 426.771 741.279 427.402 741.279 428.187C741.279 429.015 741.02 429.654 740.5 430.103C739.984 430.549 739.244 430.771 738.279 430.771H736.27ZM736.27 429.851H738.291C738.893 429.851 739.354 429.711 739.674 429.429C739.994 429.144 740.154 428.734 740.154 428.199C740.154 427.691 739.994 427.285 739.674 426.98C739.354 426.676 738.914 426.517 738.356 426.506H736.27V429.851ZM742.176 430.883C742.176 430.261 742.297 429.703 742.539 429.207C742.785 428.711 743.125 428.328 743.559 428.058C743.996 427.789 744.494 427.654 745.053 427.654C745.916 427.654 746.613 427.953 747.145 428.551C747.68 429.148 747.947 429.943 747.947 430.935V431.011C747.947 431.629 747.828 432.183 747.59 432.676C747.356 433.164 747.018 433.545 746.576 433.818C746.139 434.092 745.635 434.228 745.065 434.228C744.205 434.228 743.508 433.929 742.973 433.332C742.442 432.734 742.176 431.943 742.176 430.959V430.883ZM743.266 431.011C743.266 431.715 743.428 432.279 743.752 432.705C744.08 433.131 744.518 433.344 745.065 433.344C745.615 433.344 746.053 433.129 746.377 432.699C746.701 432.265 746.863 431.66 746.863 430.883C746.863 430.187 746.697 429.625 746.365 429.195C746.037 428.761 745.6 428.545 745.053 428.545C744.518 428.545 744.086 428.758 743.758 429.183C743.43 429.609 743.266 430.219 743.266 431.011ZM750.484 434.111H749.401V427.771H750.484V434.111ZM749.313 426.09C749.313 425.914 749.365 425.765 749.471 425.644C749.58 425.523 749.74 425.463 749.951 425.463C750.162 425.463 750.322 425.523 750.432 425.644C750.541 425.765 750.596 425.914 750.596 426.09C750.596 426.265 750.541 426.412 750.432 426.529C750.322 426.646 750.162 426.705 749.951 426.705C749.74 426.705 749.58 426.646 749.471 426.529C749.365 426.412 749.313 426.265 749.313 426.09ZM753.25 427.771L753.285 428.568C753.77 427.959 754.402 427.654 755.184 427.654C756.524 427.654 757.199 428.41 757.211 429.922V434.111H756.127V429.916C756.123 429.459 756.018 429.121 755.811 428.902C755.608 428.683 755.289 428.574 754.856 428.574C754.504 428.574 754.195 428.668 753.93 428.855C753.664 429.043 753.457 429.289 753.309 429.594V434.111H752.225V427.771H753.25ZM760.317 426.236V427.771H761.5V428.609H760.317V432.541C760.317 432.795 760.369 432.986 760.475 433.115C760.58 433.24 760.76 433.302 761.014 433.302C761.139 433.302 761.311 433.279 761.529 433.232V434.111C761.244 434.189 760.967 434.228 760.697 434.228C760.213 434.228 759.848 434.082 759.602 433.789C759.356 433.496 759.233 433.08 759.233 432.541V428.609H758.078V427.771H759.233V426.236H760.317ZM766.223 434.111H765.133V426.886L762.947 427.689V426.705L766.053 425.539H766.223V434.111ZM769.727 434.844H768.795L772.358 425.58H773.283L769.727 434.844ZM775.75 430.771V434.111H774.625V425.58H777.772C778.705 425.58 779.436 425.818 779.963 426.295C780.494 426.771 780.76 427.402 780.76 428.187C780.76 429.015 780.5 429.654 779.981 430.103C779.465 430.549 778.725 430.771 777.76 430.771H775.75ZM775.75 429.851H777.772C778.373 429.851 778.834 429.711 779.154 429.429C779.475 429.144 779.635 428.734 779.635 428.199C779.635 427.691 779.475 427.285 779.154 426.98C778.834 426.676 778.395 426.517 777.836 426.506H775.75V429.851ZM781.656 430.883C781.656 430.261 781.777 429.703 782.02 429.207C782.266 428.711 782.606 428.328 783.039 428.058C783.477 427.789 783.975 427.654 784.533 427.654C785.397 427.654 786.094 427.953 786.625 428.551C787.16 429.148 787.428 429.943 787.428 430.935V431.011C787.428 431.629 787.309 432.183 787.07 432.676C786.836 433.164 786.498 433.545 786.057 433.818C785.619 434.092 785.115 434.228 784.545 434.228C783.686 434.228 782.988 433.929 782.453 433.332C781.922 432.734 781.656 431.943 781.656 430.959V430.883ZM782.746 431.011C782.746 431.715 782.908 432.279 783.233 432.705C783.561 433.131 783.998 433.344 784.545 433.344C785.096 433.344 785.533 433.129 785.858 432.699C786.182 432.265 786.344 431.66 786.344 430.883C786.344 430.187 786.178 429.625 785.846 429.195C785.518 428.761 785.08 428.545 784.533 428.545C783.998 428.545 783.567 428.758 783.238 429.183C782.91 429.609 782.746 430.219 782.746 431.011ZM789.965 434.111H788.881V427.771H789.965V434.111ZM788.793 426.09C788.793 425.914 788.846 425.765 788.951 425.644C789.061 425.523 789.221 425.463 789.432 425.463C789.643 425.463 789.803 425.523 789.912 425.644C790.022 425.765 790.076 425.914 790.076 426.09C790.076 426.265 790.022 426.412 789.912 426.529C789.803 426.646 789.643 426.705 789.432 426.705C789.221 426.705 789.061 426.646 788.951 426.529C788.846 426.412 788.793 426.265 788.793 426.09ZM792.731 427.771L792.766 428.568C793.25 427.959 793.883 427.654 794.664 427.654C796.004 427.654 796.68 428.41 796.692 429.922V434.111H795.608V429.916C795.604 429.459 795.498 429.121 795.291 428.902C795.088 428.683 794.77 428.574 794.336 428.574C793.984 428.574 793.676 428.668 793.41 428.855C793.145 429.043 792.938 429.289 792.789 429.594V434.111H791.705V427.771H792.731ZM799.797 426.236V427.771H800.981V428.609H799.797V432.541C799.797 432.795 799.85 432.986 799.955 433.115C800.061 433.24 800.24 433.302 800.494 433.302C800.619 433.302 800.791 433.279 801.01 433.232V434.111C800.725 434.189 800.447 434.228 800.178 434.228C799.693 434.228 799.328 434.082 799.082 433.789C798.836 433.496 798.713 433.08 798.713 432.541V428.609H797.559V427.771H798.713V426.236H799.797ZM807.731 434.111H802.141V433.332L805.094 430.051C805.531 429.554 805.832 429.152 805.996 428.844C806.164 428.531 806.248 428.209 806.248 427.877C806.248 427.431 806.113 427.066 805.844 426.781C805.574 426.496 805.215 426.353 804.766 426.353C804.227 426.353 803.807 426.508 803.506 426.816C803.209 427.121 803.061 427.547 803.061 428.094H801.977C801.977 427.308 802.229 426.674 802.733 426.189C803.24 425.705 803.918 425.463 804.766 425.463C805.559 425.463 806.186 425.672 806.647 426.09C807.108 426.504 807.338 427.056 807.338 427.748C807.338 428.588 806.803 429.588 805.733 430.748L803.447 433.226H807.731V434.111ZM809.207 434.844H808.276L811.838 425.58H812.764L809.207 434.844ZM815.231 430.771V434.111H814.106V425.58H817.252C818.186 425.58 818.916 425.818 819.443 426.295C819.975 426.771 820.24 427.402 820.24 428.187C820.24 429.015 819.981 429.654 819.461 430.103C818.945 430.549 818.205 430.771 817.24 430.771H815.231ZM815.231 429.851H817.252C817.854 429.851 818.315 429.711 818.635 429.429C818.955 429.144 819.115 428.734 819.115 428.199C819.115 427.691 818.955 427.285 818.635 426.98C818.315 426.676 817.875 426.517 817.317 426.506H815.231V429.851ZM821.137 430.883C821.137 430.261 821.258 429.703 821.5 429.207C821.746 428.711 822.086 428.328 822.52 428.058C822.957 427.789 823.455 427.654 824.014 427.654C824.877 427.654 825.574 427.953 826.106 428.551C826.641 429.148 826.908 429.943 826.908 430.935V431.011C826.908 431.629 826.789 432.183 826.551 432.676C826.317 433.164 825.979 433.545 825.537 433.818C825.1 434.092 824.596 434.228 824.026 434.228C823.166 434.228 822.469 433.929 821.934 433.332C821.402 432.734 821.137 431.943 821.137 430.959V430.883ZM822.227 431.011C822.227 431.715 822.389 432.279 822.713 432.705C823.041 433.131 823.479 433.344 824.026 433.344C824.576 433.344 825.014 433.129 825.338 432.699C825.662 432.265 825.824 431.66 825.824 430.883C825.824 430.187 825.658 429.625 825.326 429.195C824.998 428.761 824.561 428.545 824.014 428.545C823.479 428.545 823.047 428.758 822.719 429.183C822.391 429.609 822.227 430.219 822.227 431.011ZM829.445 434.111H828.361V427.771H829.445V434.111ZM828.274 426.09C828.274 425.914 828.326 425.765 828.432 425.644C828.541 425.523 828.701 425.463 828.912 425.463C829.123 425.463 829.283 425.523 829.393 425.644C829.502 425.765 829.557 425.914 829.557 426.09C829.557 426.265 829.502 426.412 829.393 426.529C829.283 426.646 829.123 426.705 828.912 426.705C828.701 426.705 828.541 426.646 828.432 426.529C828.326 426.412 828.274 426.265 828.274 426.09ZM832.211 427.771L832.246 428.568C832.731 427.959 833.363 427.654 834.145 427.654C835.484 427.654 836.16 428.41 836.172 429.922V434.111H835.088V429.916C835.084 429.459 834.979 429.121 834.772 428.902C834.568 428.683 834.25 428.574 833.817 428.574C833.465 428.574 833.156 428.668 832.891 428.855C832.625 429.043 832.418 429.289 832.27 429.594V434.111H831.186V427.771H832.211ZM839.277 426.236V427.771H840.461V428.609H839.277V432.541C839.277 432.795 839.33 432.986 839.436 433.115C839.541 433.24 839.721 433.302 839.975 433.302C840.1 433.302 840.272 433.279 840.49 433.232V434.111C840.205 434.189 839.928 434.228 839.658 434.228C839.174 434.228 838.809 434.082 838.563 433.789C838.317 433.496 838.193 433.08 838.193 432.541V428.609H837.039V427.771H838.193V426.236H839.277ZM843.197 429.318H844.012C844.524 429.31 844.926 429.176 845.219 428.914C845.512 428.652 845.658 428.299 845.658 427.853C845.658 426.853 845.16 426.353 844.164 426.353C843.695 426.353 843.32 426.488 843.039 426.758C842.762 427.023 842.623 427.377 842.623 427.818H841.539C841.539 427.142 841.785 426.582 842.277 426.136C842.774 425.687 843.402 425.463 844.164 425.463C844.969 425.463 845.6 425.676 846.057 426.101C846.514 426.527 846.742 427.119 846.742 427.877C846.742 428.248 846.621 428.607 846.379 428.955C846.141 429.302 845.815 429.562 845.401 429.734C845.869 429.883 846.231 430.129 846.484 430.472C846.742 430.816 846.871 431.236 846.871 431.732C846.871 432.498 846.621 433.105 846.121 433.554C845.621 434.004 844.971 434.228 844.17 434.228C843.369 434.228 842.717 434.011 842.213 433.578C841.713 433.144 841.463 432.572 841.463 431.861H842.553C842.553 432.31 842.699 432.67 842.992 432.939C843.285 433.209 843.678 433.344 844.17 433.344C844.693 433.344 845.094 433.207 845.371 432.933C845.649 432.66 845.787 432.267 845.787 431.756C845.787 431.26 845.635 430.879 845.33 430.613C845.026 430.347 844.586 430.211 844.012 430.203H843.197V429.318ZM849.274 425.908L849.098 428.006H848.447L848.453 425.111H849.274V425.908ZM850.856 425.908L850.68 428.006H850.029L850.035 425.111H850.856V425.908ZM852.531 434.844H851.6L855.162 425.58H856.088L852.531 434.844ZM861.098 430.302L857.225 428.785V427.672L862.229 429.886V430.742L857.225 432.963V431.838L861.098 430.302Z" fill="black"/>
<defs>
<filter id="filter0_d" x="133" y="416" width="28" height="26" filterUnits="userSpaceOnUse" color-interpolation-filters="sRGB">
<feFlood flood-opacity="0" result="BackgroundImageFix"/>
<feColorMatrix in="SourceAlpha" type="matrix" values="0 0 0 0 0 0 0 0 0 0 0 0 0 0 0 0 0 0 127 0"/>
<feOffset dy="4"/>
<feGaussianBlur stdDeviation="2"/>
<feColorMatrix type="matrix" values="0 0 0 0 0 0 0 0 0 0 0 0 0 0 0 0 0 0 0.25 0"/>
<feBlend mode="normal" in2="BackgroundImageFix" result="effect1_dropShadow"/>
<feBlend mode="normal" in="SourceGraphic" in2="effect1_dropShadow" result="shape"/>
</filter>
</defs>
</svg>
